<?xml version="1.0" standalone="no"?>
<!DOCTYPE svg PUBLIC "-//W3C//DTD SVG 20010904//EN"
 "http://www.w3.org/TR/2001/REC-SVG-20010904/DTD/svg10.dtd">
<svg version="1.0" xmlns="http://www.w3.org/2000/svg"
 width="665.000000pt" height="665.000000pt" viewBox="0 0 665.000000 665.000000"
 preserveAspectRatio="xMidYMid meet">
<metadata>
Created by potrace 1.14, written by Peter Selinger 2001-2017
</metadata>
<g transform="translate(0.000000,665.000000) scale(0.100000,-0.100000)"
fill="#000000" stroke="none">
<path d="M3139 5956 c-2 -2 -35 -6 -74 -10 -38 -3 -85 -8 -103 -11 -89 -12
-121 -17 -162 -27 -25 -5 -56 -12 -70 -14 -14 -3 -43 -10 -65 -16 -22 -6 -47
-13 -55 -14 -8 -2 -42 -13 -75 -24 -69 -24 -70 -24 -110 -35 -16 -4 -34 -11
-40 -15 -5 -3 -32 -15 -60 -25 -102 -37 -418 -200 -435 -224 -3 -4 -25 -19
-50 -33 -25 -14 -56 -36 -69 -47 -13 -12 -27 -21 -30 -21 -3 0 -17 -10 -31
-22 -14 -13 -48 -41 -75 -63 -28 -22 -63 -51 -79 -65 -51 -43 -209 -203 -256
-259 -25 -29 -50 -58 -55 -65 -112 -122 -289 -414 -377 -621 -110 -257 -173
-491 -208 -775 -19 -155 -17 -522 4 -640 3 -14 7 -42 10 -62 11 -70 18 -110
22 -132 3 -11 7 -34 10 -51 3 -16 7 -37 10 -45 3 -8 8 -26 10 -40 3 -14 7 -32
11 -40 7 -18 10 -28 17 -57 2 -12 10 -31 16 -42 6 -12 8 -21 4 -21 -3 0 -2 -6
4 -12 6 -7 11 -16 11 -20 1 -5 1 -9 2 -10 0 -2 2 -10 4 -18 2 -8 9 -28 16 -45
6 -16 13 -34 14 -40 2 -5 10 -27 18 -48 9 -20 16 -38 15 -40 -1 -4 126 -252
132 -257 3 -3 12 -20 19 -38 8 -17 17 -32 21 -32 4 0 11 -8 14 -17 10 -29 51
-91 116 -178 24 -33 48 -64 52 -70 4 -5 18 -22 30 -37 13 -14 41 -48 63 -74
54 -65 198 -209 264 -264 30 -25 59 -50 65 -55 31 -29 143 -110 237 -172 311
-205 746 -367 1094 -408 28 -3 82 -9 120 -14 70 -9 492 -8 530 2 11 2 47 8 80
12 32 4 68 9 80 11 11 2 36 7 55 10 114 17 419 104 448 126 6 6 12 7 12 3 0
-4 11 0 25 9 14 9 25 14 25 11 0 -3 10 0 23 7 12 7 24 13 27 13 3 1 28 12 55
25 28 13 52 24 55 25 19 6 46 19 50 24 3 3 44 26 93 51 48 25 87 48 87 52 0 5
4 8 10 8 12 0 170 104 204 135 6 6 29 23 51 40 22 16 45 34 51 40 7 5 34 29
60 52 324 276 615 700 753 1098 17 50 34 97 38 105 3 8 7 20 8 25 2 6 12 44
23 85 42 148 76 346 89 505 11 144 5 436 -11 520 -2 11 -7 47 -10 80 -4 33
-11 76 -16 95 -5 19 -12 49 -14 65 -3 17 -8 40 -11 53 -3 12 -7 31 -10 43 -6
27 -9 38 -41 144 -27 91 -72 211 -102 275 -9 19 -17 37 -17 40 0 10 -97 197
-135 260 -22 36 -45 75 -51 88 -7 12 -16 22 -21 22 -4 0 -8 5 -8 11 0 11 -50
82 -62 87 -5 2 -8 8 -8 13 0 6 -5 15 -10 22 -17 20 -43 52 -75 93 -96 122
-252 274 -426 417 -58 47 -231 162 -330 219 -283 162 -665 291 -959 323 -30 4
-78 10 -106 14 -53 8 -447 14 -455 7z m336 -120 c66 -3 136 -7 155 -10 19 -3
55 -7 79 -10 125 -15 368 -76 520 -132 106 -39 421 -192 421 -204 0 -4 11 -11
25 -14 14 -4 25 -11 25 -16 0 -6 6 -10 13 -10 8 0 22 -9 32 -20 10 -11 23 -20
29 -20 6 0 31 -16 56 -35 25 -19 50 -38 55 -42 24 -18 112 -90 139 -113 53
-45 230 -224 266 -269 19 -23 42 -51 51 -61 8 -10 24 -31 35 -45 10 -15 24
-32 30 -39 5 -6 19 -26 29 -43 11 -18 23 -33 27 -33 4 0 8 -6 8 -13 0 -7 8
-22 18 -33 22 -25 52 -74 59 -96 3 -10 9 -18 14 -18 5 0 9 -6 9 -14 0 -8 7
-22 16 -30 8 -9 12 -16 8 -16 -3 0 -2 -6 4 -12 15 -19 81 -148 76 -148 -3 0 2
-12 10 -27 23 -42 109 -269 120 -318 2 -5 8 -30 15 -55 7 -25 15 -54 17 -65 2
-11 6 -30 9 -42 12 -53 23 -113 31 -163 3 -19 7 -46 10 -60 10 -58 18 -214 18
-335 0 -124 -11 -322 -19 -334 -2 -3 -6 -28 -9 -56 -3 -27 -10 -70 -15 -95 -5
-25 -14 -67 -19 -95 -48 -233 -167 -522 -317 -774 -20 -33 -138 -204 -155
-225 -97 -116 -159 -185 -237 -261 -92 -90 -127 -121 -228 -203 -37 -29 -187
-132 -193 -132 -5 0 -17 -8 -28 -17 -28 -26 -319 -177 -327 -171 -2 2 -15 -5
-30 -15 -15 -9 -27 -15 -27 -12 0 3 -10 0 -22 -7 -13 -6 -27 -13 -33 -14 -5
-2 -41 -14 -80 -28 -78 -28 -157 -50 -255 -73 -115 -26 -138 -30 -315 -53 -75
-9 -514 -6 -580 5 -327 54 -498 102 -742 212 -192 86 -434 239 -603 380 -49
40 -270 263 -305 308 -16 20 -34 42 -40 49 -14 16 -77 100 -95 126 -8 12 -27
40 -43 61 -15 21 -27 43 -27 48 0 5 -4 11 -8 13 -15 6 -162 286 -192 368 -7
19 -17 39 -22 45 -4 5 -8 15 -8 21 0 7 -4 23 -9 36 -5 13 -10 28 -11 33 -1 6
-6 16 -12 22 -6 7 -7 13 -3 13 4 0 2 7 -5 15 -7 8 -9 15 -6 15 4 0 2 9 -4 21
-6 11 -13 28 -15 37 -2 9 -11 46 -20 82 -9 36 -19 73 -21 83 -2 10 -5 26 -8
35 -6 21 -14 63 -22 122 -3 25 -8 54 -10 65 -22 112 -25 495 -5 650 48 380
173 736 365 1045 41 67 152 226 171 246 5 6 28 33 50 60 43 54 252 264 301
304 17 14 57 45 90 70 32 25 68 53 78 62 11 10 28 20 38 24 10 3 18 10 18 15
0 5 6 9 13 9 6 0 24 10 39 23 33 27 90 61 101 59 4 -1 7 3 7 8 0 6 6 10 14 10
8 0 21 7 30 15 8 9 19 16 23 17 4 1 53 22 108 48 100 47 156 72 165 75 3 1 18
7 33 13 15 7 40 15 55 18 15 4 33 11 40 17 6 5 12 7 12 3 0 -3 17 1 38 9 47
18 216 63 268 70 21 4 46 8 54 10 8 2 38 7 65 10 28 4 61 8 75 11 14 3 84 7
155 10 72 4 131 8 133 9 2 2 11 1 20 -1 9 -2 71 -5 137 -8z"/>
<path d="M2895 4199 c-22 -4 -56 -10 -75 -13 -33 -6 -54 -13 -105 -32 -11 -4
-22 -8 -25 -9 -31 -8 -80 -31 -80 -38 0 -4 -4 -5 -10 -2 -5 3 -10 1 -10 -4 0
-6 -6 -11 -13 -11 -15 0 -107 -62 -157 -106 -34 -30 -77 -75 -129 -134 -79
-91 -160 -276 -184 -419 -14 -80 -13 -80 -93 -96 -12 -3 -35 -12 -50 -20 -16
-8 -35 -15 -41 -15 -7 0 -13 -3 -13 -8 0 -4 -12 -13 -27 -20 -77 -34 -181
-173 -212 -284 -79 -278 73 -550 354 -634 56 -17 138 -18 1275 -18 668 0 1238
3 1266 7 54 7 130 31 149 47 7 5 14 8 17 5 3 -3 11 1 18 10 7 8 18 15 24 15 6
0 27 14 46 31 19 17 44 39 55 48 60 49 135 180 161 283 22 83 21 262 -1 297
-2 4 -6 20 -9 34 -5 30 -46 119 -59 128 -5 3 -9 10 -9 15 -1 5 -13 25 -27 44
-23 31 -41 48 -115 114 -53 46 -195 101 -281 108 -39 4 -41 6 -80 82 -59 114
-145 199 -249 246 -91 41 -156 53 -249 47 -87 -6 -88 -6 -153 -26 l-41 -13
-64 64 c-143 145 -318 238 -514 273 -58 11 -243 13 -290 4z m294 -145 c185
-38 353 -143 476 -299 22 -27 44 -55 49 -61 7 -7 23 -4 55 11 111 53 210 69
303 50 86 -18 210 -109 241 -175 4 -8 11 -22 16 -30 11 -18 19 -38 41 -105
l16 -50 99 -8 c82 -6 110 -13 169 -41 162 -79 257 -227 260 -406 0 -47 -6
-107 -14 -135 -17 -62 -69 -152 -113 -197 -45 -46 -103 -88 -111 -81 -3 4 -6
1 -6 -5 0 -7 -8 -12 -18 -12 -10 0 -22 -3 -26 -7 -3 -4 -12 -8 -19 -10 -7 -1
-30 -7 -52 -12 -26 -7 -462 -10 -1260 -8 l-1220 2 -65 31 c-203 98 -279 317
-178 517 26 52 104 127 160 155 55 27 91 36 177 46 24 3 45 7 48 10 4 4 6 19
18 131 18 172 101 341 233 473 79 79 202 157 295 186 9 3 19 6 22 7 113 40
275 49 404 23z"/>
</g>
</svg>
