<svg version="1.1" id="Layer_1" xmlns="http://www.w3.org/2000/svg" xmlns:xlink="http://www.w3.org/1999/xlink" x="0px" y="0px"
	 width="100%" viewBox="0 0 1024 1024" enable-background="new 0 0 1024 1024" xml:space="preserve">
<path fill="#040404" opacity="1.000000" stroke="none" 
	d="
M945.000000,1025.000000 
	C630.365356,1025.000000 315.730743,1025.000000 1.048052,1025.000000 
	C1.048052,683.733459 1.048052,342.466919 1.048052,1.100176 
	C342.231781,1.100176 683.463623,1.100176 1025.000000,1.100176 
	C1025.000000,336.697540 1025.000000,672.395142 1024.546021,1008.665894 
	C1019.030701,1009.282288 1013.969299,1009.325562 1008.474548,1009.203979 
	C1003.027405,1009.042419 998.013733,1009.045715 992.540710,1008.966187 
	C987.089294,1008.968689 982.097229,1009.054138 976.627686,1009.087891 
	C971.072571,1009.078796 965.994995,1009.121338 960.464233,1009.069946 
	C955.129761,1008.975952 950.248413,1008.975952 945.000000,1008.975952 
	C945.000000,1014.580933 945.000000,1019.790466 945.000000,1025.000000 
M521.574280,492.260651 
	C521.614868,490.045898 521.655457,487.831146 522.189087,485.067596 
	C522.753357,482.869415 523.799500,480.673370 523.809082,478.472778 
	C523.937927,448.831421 523.944519,419.189423 523.934448,389.547607 
	C523.928406,371.892059 523.983337,354.234497 523.730408,336.581818 
	C523.595154,327.143921 520.503113,323.699066 510.977997,321.823669 
	C509.204895,321.658173 507.431793,321.492706 506.275085,320.816711 
	C509.476074,318.482391 512.681458,316.154053 515.877258,313.812683 
	C529.195679,304.055115 540.307068,292.829163 541.106812,274.977386 
	C541.344543,269.671875 541.154297,264.348541 541.257935,259.035309 
	C541.372559,253.153824 540.700806,252.684769 535.117310,255.172989 
	C531.627380,249.134766 528.211914,242.968903 519.418640,244.566467 
	C518.334717,244.763397 516.005310,243.528076 515.878052,242.705231 
	C514.897644,236.363525 506.169952,233.753448 507.963104,226.045074 
	C508.144989,225.263199 506.087311,223.960327 505.035767,221.975540 
	C504.948029,214.941879 504.860291,207.908234 504.689026,200.186417 
	C502.780975,198.851959 500.919250,196.466415 498.956177,196.379822 
	C493.030182,196.118439 487.008148,196.362823 481.142151,197.220718 
	C478.729248,197.573608 475.314850,199.544006 474.613647,201.562836 
	C472.422333,207.871597 468.105011,208.670227 462.498840,208.197189 
	C458.106506,207.826569 455.964966,210.318802 455.022583,214.525391 
	C454.672882,216.086456 453.067047,218.319885 451.747559,218.541626 
	C446.570496,219.411621 441.279144,219.601517 435.094666,219.983704 
	C433.946564,219.974487 432.798431,219.958023 431.650330,219.957153 
	C421.523499,219.949493 421.523499,219.950317 422.131805,230.997452 
	C422.732147,237.473602 421.376465,242.713928 414.515869,245.512482 
	C412.708191,246.249893 410.890320,248.831177 410.521362,250.832016 
	C409.786652,254.816483 409.574463,259.038727 410.019714,263.066193 
	C410.688293,269.113434 411.992065,275.103424 413.314941,281.053467 
	C413.553223,282.125153 415.075745,283.465576 416.194672,283.676270 
	C418.835876,284.173584 423.264099,283.158875 423.935608,284.398804 
	C425.156647,286.653381 424.170441,290.101959 424.111572,293.052429 
	C424.101624,293.550842 424.092804,294.052368 424.134583,294.548187 
	C424.560913,299.607483 426.986023,300.936798 431.473816,298.687195 
	C432.958466,297.942963 434.580719,297.473328 436.452728,296.758789 
	C437.399628,301.039978 438.178040,304.559357 439.109070,308.842041 
	C439.904724,312.802185 440.700378,316.762360 441.241272,321.531128 
	C441.311493,334.700195 441.381714,347.869263 441.285767,361.844299 
	C441.314026,362.939636 441.342285,364.034943 440.998383,365.830719 
	C440.911102,369.936951 440.613159,374.054626 440.835297,378.144043 
	C440.930450,379.896393 442.107574,381.589966 442.761963,384.189545 
	C442.834930,387.475861 442.907898,390.762146 442.734924,394.806183 
	C442.820648,395.854675 442.906403,396.903168 442.830536,398.759460 
	C442.892212,399.851746 442.953857,400.944000 442.766907,402.833435 
	C442.852356,404.213501 442.937805,405.593536 442.852325,407.879913 
	C442.910217,411.253235 442.968109,414.626556 442.769226,418.890259 
	C442.854584,422.590210 442.939941,426.290192 442.849915,430.914368 
	C442.879517,448.352966 442.909149,465.791565 442.602753,483.844208 
	C442.562836,486.565216 442.522919,489.286194 442.146332,492.636108 
	C441.383881,493.511322 440.786652,494.845886 439.832794,495.189056 
	C432.273010,497.908630 432.253754,497.850677 432.180969,505.758789 
	C432.158264,508.226715 432.124542,510.694489 431.226440,513.156067 
	C422.735901,513.216614 421.127258,514.842712 421.111298,523.415039 
	C421.096191,531.554199 421.020569,539.694153 421.102875,547.832397 
	C421.219177,559.333435 421.388794,559.461365 432.897186,561.169189 
	C433.395447,564.992920 433.893707,568.816650 434.212341,573.457153 
	C434.885315,575.934631 435.878326,578.376038 436.163055,580.897339 
	C436.716370,585.797363 439.177795,587.800049 444.050720,587.915283 
	C443.744873,601.328125 443.374451,614.739929 443.156921,628.154175 
	C443.022919,636.416626 443.010834,644.684998 443.172546,652.946228 
	C443.235931,656.184326 442.200897,658.020691 437.936493,658.348511 
	C428.945740,658.334290 419.954987,658.320007 410.660522,658.087158 
	C410.420319,658.304688 410.180115,658.522217 409.685822,659.457703 
	C409.630035,659.961792 409.574280,660.465820 409.207672,661.158447 
	C409.311371,661.453857 409.415070,661.749207 409.673859,662.932129 
	C409.690033,663.597656 409.724762,664.263306 409.719604,664.928711 
	C409.633057,676.145325 411.103241,674.980042 399.541718,674.954895 
	C384.780396,674.922791 384.780487,674.887512 385.762085,690.600830 
	C385.785736,690.780457 385.809357,690.960022 384.931885,691.180542 
	C373.367889,691.180542 361.803894,691.180542 349.793213,691.180542 
	C349.793213,697.927673 349.793213,703.859131 349.793213,710.425842 
	C337.133545,710.425842 324.916199,710.425842 312.562592,710.425842 
	C312.562592,715.986328 312.562592,720.896729 312.562592,726.427979 
	C314.461426,726.427979 316.076508,726.428711 317.691620,726.427856 
	C325.678894,726.423645 333.666962,726.345459 341.653198,726.433289 
	C351.462067,726.541199 349.846191,725.543030 349.966309,734.565002 
	C350.014069,738.151367 349.974182,741.738953 349.974182,745.818298 
	C358.476105,745.818298 366.263641,745.835022 374.051147,745.814209 
	C384.850616,745.785400 384.934937,745.772400 385.061218,756.757263 
	C385.094910,759.689270 385.870453,761.005554 389.031677,760.859741 
	C393.681122,760.645386 398.353210,760.655090 403.005493,760.833801 
	C409.766937,761.093445 411.435272,762.944580 411.679199,769.629333 
	C411.821777,773.536682 412.125519,777.438171 412.361816,781.427734 
	C422.161957,781.427734 431.272308,781.427734 441.342590,781.756958 
	C445.928894,781.768066 450.515167,781.779114 456.023102,781.862061 
	C463.313110,781.858154 470.603119,781.854248 478.843414,781.980896 
	C489.115234,782.272339 499.386139,782.648499 509.659912,782.759766 
	C511.126892,782.775635 512.607788,781.508484 514.976379,781.085266 
	C524.310303,780.917297 533.644226,780.749268 543.902832,780.757141 
	C558.635559,780.685608 573.368347,780.614075 588.680847,780.813171 
	C589.101257,780.837341 589.521667,780.861511 590.473145,781.143372 
	C590.664368,781.097168 590.855652,781.050903 591.709412,781.215820 
	C593.789551,781.144592 595.869751,781.073364 598.875488,781.200317 
	C607.932251,781.138916 616.988953,781.077454 626.501465,781.199341 
	C626.501465,781.199341 626.956970,781.015503 628.026245,781.148132 
	C628.672119,780.856506 629.318054,780.564880 630.086487,780.842651 
	C629.991333,780.946289 629.896179,781.049927 629.801025,781.153564 
	C629.847839,780.863403 629.894653,780.573242 629.790161,779.718567 
	C629.718567,779.144043 629.646973,778.569458 629.774536,777.503418 
	C629.713867,777.337341 629.653137,777.171326 629.783630,776.127869 
	C629.688416,773.445618 629.593201,770.763367 629.692261,767.147095 
	C629.796997,765.560852 629.901672,763.974609 630.408203,762.398193 
	C630.695923,762.417969 630.938538,762.322754 632.033447,762.333801 
	C640.371338,762.195251 648.709290,762.056763 657.650818,761.590759 
	C657.640808,758.777649 657.630798,755.964478 657.816650,752.354614 
	C657.774719,751.538696 657.732727,750.722839 657.958862,749.204956 
	C658.601685,748.000793 659.244446,746.796631 660.826416,745.750854 
	C670.259644,745.671692 679.692810,745.592529 689.711365,745.737915 
	C690.436279,745.501282 691.161133,745.264587 692.395081,744.213013 
	C692.321533,738.413330 692.248047,732.613586 692.398499,726.057983 
	C692.341797,724.751404 692.285095,723.444824 692.762634,721.832031 
	C692.883423,721.666077 693.004272,721.500183 693.486206,721.437439 
	C693.486206,721.437439 693.779358,721.202576 694.634094,721.594116 
	C696.781006,721.682312 698.927917,721.770508 701.516296,722.074524 
	C702.325684,722.038696 703.135010,722.002869 704.743958,722.215454 
	C708.821716,722.209106 712.899414,722.202759 717.672119,722.475525 
	C718.671265,722.494751 719.671204,722.550781 720.669373,722.527100 
	C726.253113,722.394775 728.802612,719.187195 728.441040,712.776367 
	C728.174744,708.054993 725.644287,706.098877 720.232910,706.609802 
	C718.772156,706.747681 717.348999,707.283508 714.986084,707.553101 
	C708.049133,707.666809 701.112122,707.780518 693.843872,707.660461 
	C693.575256,707.589417 693.307800,707.593811 692.846069,706.671936 
	C692.609375,701.791687 692.372742,696.911499 692.442261,691.358276 
	C691.249390,690.511841 690.075867,688.964844 688.860535,688.931274 
	C680.230408,688.692932 671.587219,688.598083 662.958008,688.827209 
	C659.947754,688.907104 657.911804,688.323486 657.043274,684.498901 
	C657.304321,681.313354 657.565430,678.127808 657.886841,674.205872 
	C651.807983,674.205872 645.868042,674.205872 639.794006,673.506409 
	C636.729614,671.059387 633.665161,668.612427 630.345459,665.313965 
	C630.345459,662.861511 630.345459,660.409119 630.345459,657.718933 
	C628.839294,657.605774 627.883606,657.473145 626.927673,657.471008 
	C601.996460,657.415100 577.065186,657.320068 552.134094,657.359192 
	C544.351013,657.371399 536.568542,657.752441 528.056213,657.677917 
	C527.680359,655.825012 526.989014,653.974182 526.977173,652.118958 
	C526.848267,632.013306 526.825989,611.906921 526.816223,590.877991 
	C526.009155,581.626526 525.202148,572.375061 524.355469,562.669006 
	C527.551025,562.498657 530.946289,562.317688 534.309875,562.138367 
	C534.309875,556.301086 534.309875,550.926819 534.309875,545.242065 
	C530.091309,545.242065 526.287720,545.242065 522.353882,544.282532 
	C522.314453,535.172791 522.275085,526.063110 522.606445,516.242554 
	C522.271362,508.507080 521.936218,500.771576 521.574280,492.260651 
z"/>
<path fill="#AED7EF" opacity="1.000000" stroke="none" 
	d="
M1008.907959,1009.368774 
	C1013.969299,1009.325562 1019.030701,1009.282288 1024.546021,1009.119507 
	C1025.000000,1014.258423 1025.000000,1019.516846 1025.000000,1025.000000 
	C1019.982300,1025.000000 1014.962341,1025.000000 1009.505493,1024.535400 
	C1009.015015,1019.170044 1008.961487,1014.269409 1008.907959,1009.368774 
z"/>
<path fill="#D0973F" opacity="1.000000" stroke="none" 
	d="
M1008.474548,1009.203918 
	C1008.961487,1014.269409 1009.015015,1019.170044 1009.034302,1024.535400 
	C1003.977905,1025.000000 998.955811,1025.000000 993.382080,1024.539429 
	C992.886963,1019.068909 992.943481,1014.059021 993.000000,1009.049072 
	C998.013733,1009.045715 1003.027405,1009.042419 1008.474548,1009.203918 
z"/>
<path fill="#505F49" opacity="1.000000" stroke="none" 
	d="
M992.540710,1008.966187 
	C992.943481,1014.059021 992.886963,1019.068909 992.915222,1024.539429 
	C987.977905,1025.000000 982.955811,1025.000000 977.535828,1024.537720 
	C977.127014,1019.096863 977.116028,1014.118225 977.105103,1009.139648 
	C982.097229,1009.054138 987.089294,1008.968689 992.540710,1008.966187 
z"/>
<path fill="#AED7EF" opacity="1.000000" stroke="none" 
	d="
M976.627686,1009.087952 
	C977.116028,1014.118225 977.127014,1019.096863 977.068970,1024.537720 
	C971.977905,1025.000000 966.955811,1025.000000 961.437683,1024.534424 
	C960.933533,1019.100525 960.925415,1014.132202 960.917358,1009.163940 
	C965.994995,1009.121338 971.072571,1009.078796 976.627686,1009.087952 
z"/>
<path fill="#E6E16D" opacity="1.000000" stroke="none" 
	d="
M960.464233,1009.069946 
	C960.925415,1014.132202 960.933533,1019.100525 960.970825,1024.534424 
	C955.977905,1025.000000 950.955811,1025.000000 945.466858,1025.000000 
	C945.000000,1019.790466 945.000000,1014.580933 945.000000,1008.975952 
	C950.248413,1008.975952 955.129761,1008.975952 960.464233,1009.069946 
z"/>
<path fill="#D0973F" opacity="1.000000" stroke="none" 
	d="
M692.228394,722.138245 
	C692.285095,723.444824 692.341797,724.751404 691.825623,726.444214 
	C688.459534,727.698608 684.164673,724.637756 682.978394,729.524719 
	C682.013550,733.499939 679.612671,734.148254 676.080444,734.176147 
	C670.035156,734.223816 663.993164,734.683472 657.812195,735.077576 
	C657.625488,735.290039 657.514771,735.413147 657.539246,735.496521 
	C657.602417,735.711304 657.725525,735.908508 657.823425,736.556396 
	C657.916748,739.671509 658.011292,742.342896 657.869568,745.258179 
	C657.411987,746.148804 657.190674,746.795593 656.513184,747.344849 
	C648.950623,747.528320 641.833191,747.658875 634.744507,748.179504 
	C632.549500,748.340759 628.589172,749.558777 628.587646,750.299500 
	C628.579468,754.236450 625.706787,758.945435 630.474243,762.140259 
	C630.331604,762.245972 630.006348,762.388367 630.006348,762.388367 
	C629.901672,763.974609 629.796997,765.560852 629.159790,767.596619 
	C592.702820,767.983826 556.778442,767.921570 520.499390,767.797302 
	C518.037537,766.617676 513.731812,768.052856 514.719543,762.655334 
	C514.329285,740.751465 513.858704,719.373413 513.914490,697.996643 
	C513.942932,687.111572 518.336975,678.387573 529.494019,673.892700 
	C540.917358,673.871643 551.876160,673.858398 562.835022,673.862671 
	C582.320007,673.870178 601.804993,673.870605 621.289917,673.910400 
	C629.810303,673.927795 629.393005,673.206116 629.034119,681.674805 
	C628.833130,686.416687 630.798645,687.937988 635.080566,687.886230 
	C642.074280,687.801758 649.069336,687.827393 656.046265,688.173096 
	C656.691406,689.359131 657.354004,690.178589 657.972961,691.367493 
	C657.637695,692.659058 657.228210,693.562317 657.078064,694.506836 
	C656.720459,696.755371 656.023193,699.112915 656.435120,701.238037 
	C656.593384,702.054260 659.373535,702.741211 660.992188,702.821899 
	C665.300842,703.036621 669.627441,702.875305 673.946838,702.889587 
	C683.062317,702.919800 683.062378,702.926636 683.065674,711.931458 
	C683.069153,721.427673 683.069092,721.427673 692.228394,722.138245 
z"/>
<path fill="#505F49" opacity="1.000000" stroke="none" 
	d="
M477.893127,781.850342 
	C470.603119,781.854248 463.313110,781.858154 455.522522,781.377441 
	C455.019440,761.757141 455.378815,742.612366 454.902466,723.488464 
	C454.505432,707.548767 455.621826,692.006348 461.349548,676.951355 
	C462.389771,674.217102 463.308105,672.573486 466.436127,672.938110 
	C467.913574,673.110352 469.446777,672.812866 470.921906,672.994507 
	C474.887115,673.482849 476.087158,671.824341 476.045441,667.898499 
	C475.865143,650.927307 475.970184,633.953125 475.963074,616.980042 
	C475.959076,607.520691 475.938995,607.662354 466.552948,606.821655 
	C464.954895,606.678467 462.293243,604.817261 462.210968,603.607727 
	C461.765289,597.057190 460.234467,591.721313 452.242554,591.314636 
	C452.796814,589.095215 453.169800,587.601746 453.877533,584.767822 
	C448.083130,587.974915 447.139740,582.707458 444.189148,580.428345 
	C444.261383,576.213623 443.188385,573.646729 438.603821,573.935852 
	C437.232544,574.022278 435.797668,573.100342 434.391968,572.640381 
	C433.893707,568.816650 433.395447,564.992920 432.859680,560.302856 
	C432.580078,544.011780 432.337952,528.587036 432.095825,513.162354 
	C432.124542,510.694489 432.158264,508.226715 432.180969,505.758789 
	C432.253754,497.850677 432.273010,497.908630 439.832794,495.189056 
	C440.786652,494.845886 441.383881,493.511322 442.466064,492.717468 
	C444.533051,493.608490 446.234619,494.973633 448.036224,495.121735 
	C453.054749,495.534332 458.114807,495.441986 463.138885,495.960449 
	C463.806610,499.355499 460.882965,503.845032 466.263885,504.862671 
	C469.952148,505.560242 473.763000,505.609863 477.630310,506.408569 
	C477.762451,511.674774 477.647888,516.487427 477.857208,521.285950 
	C477.974670,523.978577 478.627899,526.647827 479.053894,529.774780 
	C479.053284,553.841248 479.036469,577.460571 479.024811,601.079895 
	C479.020782,609.277710 479.584167,609.829346 488.052856,609.931152 
	C488.714264,609.939087 489.377075,609.826111 490.497498,609.808472 
	C492.785278,609.880188 494.639771,610.120117 496.439423,609.903870 
	C500.794067,609.380676 502.198456,611.044189 502.137207,615.489563 
	C501.878113,634.287781 501.969360,653.090881 501.510437,671.910400 
	C498.926178,672.043091 496.764038,672.157471 494.601898,672.271912 
	C494.497559,672.945984 494.393219,673.620056 494.288879,674.294128 
	C496.829407,674.908081 499.369934,675.521973 501.904907,676.539429 
	C502.117828,681.438110 500.502350,685.685242 495.819977,685.561462 
	C488.735626,685.374207 488.419891,689.103210 488.912994,694.231201 
	C489.039856,695.550171 488.790466,696.910156 488.960632,698.219238 
	C489.506104,702.414978 488.137634,704.651367 483.537384,703.925232 
	C479.182770,703.237793 477.818939,705.051697 477.851501,709.473145 
	C478.029236,733.597717 477.910126,757.724365 477.893127,781.850342 
z"/>
<path fill="#E0F7FE" opacity="1.000000" stroke="none" 
	d="
M479.039734,529.327576 
	C478.627899,526.647827 477.974670,523.978577 477.857208,521.285950 
	C477.647888,516.487427 477.762451,511.674774 477.729950,505.967621 
	C477.682465,502.357239 477.646545,499.647247 477.716522,496.726685 
	C477.856201,496.148193 477.700317,495.898651 477.339722,495.750122 
	C477.324707,495.732758 477.319702,495.687164 477.311188,495.411285 
	C477.190979,494.989197 477.079285,494.842957 476.965820,494.309357 
	C477.017853,491.834564 477.364075,489.699158 477.032013,487.675018 
	C476.770538,486.081329 475.672852,484.624847 474.952698,482.672607 
	C474.645691,476.778229 474.030487,471.316559 474.069580,465.859558 
	C474.291168,434.937012 474.667877,404.015564 474.996552,373.093842 
	C475.029449,370.002777 475.312347,366.880859 470.648132,367.026978 
	C464.463074,367.220825 462.997345,368.285583 462.997009,373.323151 
	C462.994537,409.934143 463.012970,446.545135 462.564209,483.261322 
	C455.715332,483.321075 449.327026,483.275604 442.938751,483.230164 
	C442.909149,465.791565 442.879517,448.352966 443.292633,430.310242 
	C445.219971,425.699768 446.381226,421.712982 443.026001,417.999878 
	C442.968109,414.626556 442.910217,411.253235 443.260803,407.321533 
	C445.506744,404.903259 445.586670,403.286438 443.015503,402.036285 
	C442.953857,400.944000 442.892212,399.851746 443.219971,398.260315 
	C443.399902,396.523590 443.190399,395.286011 442.980896,394.048462 
	C442.907898,390.762146 442.834930,387.475861 442.838318,383.283569 
	C442.399963,376.628479 441.885254,370.879395 441.370544,365.130280 
	C441.342285,364.034943 441.314026,362.939636 441.690735,361.359070 
	C443.230316,359.111389 445.051056,357.469086 445.384338,355.566223 
	C447.095245,345.798492 448.313141,335.944855 449.985901,326.169617 
	C450.292267,324.379364 451.905151,322.812714 453.340790,321.072632 
	C455.201904,321.059326 456.637177,321.116302 458.288391,321.387756 
	C459.095673,321.733307 459.686981,321.864380 460.726624,321.936920 
	C473.457214,321.863831 485.739441,321.849274 498.020630,322.310699 
	C497.686981,336.407959 497.098114,350.028625 497.067352,363.650574 
	C496.949280,415.930939 497.041595,468.211761 496.918335,520.492126 
	C496.911652,523.321350 495.659180,526.147644 494.529236,529.068848 
	C489.061127,529.217407 484.050446,529.272461 479.039734,529.327576 
z"/>
<path fill="#273E2D" opacity="1.000000" stroke="none" 
	d="
M501.932495,671.892151 
	C501.969360,653.090881 501.878113,634.287781 502.137207,615.489563 
	C502.198456,611.044189 500.794067,609.380676 496.439423,609.903870 
	C494.639771,610.120117 492.785278,609.880188 490.424377,609.486816 
	C488.827667,607.319885 486.957855,605.565430 486.837982,603.698669 
	C486.349670,596.093994 490.100311,592.194702 498.579651,591.097534 
	C499.293304,591.297729 499.783691,591.354431 500.525940,591.488281 
	C501.042816,591.385559 501.307831,591.205811 501.664459,591.272461 
	C502.092621,591.521240 502.429199,591.523560 503.180603,591.609497 
	C511.321869,591.728943 519.048279,591.764832 526.774719,591.800781 
	C526.825989,611.906921 526.848267,632.013306 526.977173,652.118958 
	C526.989014,653.974182 527.680359,655.825012 528.425720,658.289307 
	C528.873291,663.903259 528.951416,668.905762 529.029480,673.908325 
	C518.336975,678.387573 513.942932,687.111572 513.914490,697.996643 
	C513.858704,719.373413 514.329285,740.751465 514.647339,762.994873 
	C514.502502,769.518921 514.292358,775.177002 514.082275,780.835144 
	C512.607788,781.508484 511.126892,782.775635 509.659912,782.759766 
	C499.386139,782.648499 489.115234,782.272339 478.368256,781.915649 
	C477.910126,757.724365 478.029236,733.597717 477.851501,709.473145 
	C477.818939,705.051697 479.182770,703.237793 483.537384,703.925232 
	C488.137634,704.651367 489.506104,702.414978 488.960632,698.219238 
	C488.790466,696.910156 489.039856,695.550171 488.912994,694.231201 
	C488.419891,689.103210 488.735626,685.374207 495.819977,685.561462 
	C500.502350,685.685242 502.117828,681.438110 501.934784,676.113525 
	C501.957611,674.153564 501.945038,673.022827 501.932495,671.892151 
z"/>
<path fill="#954E09" opacity="1.000000" stroke="none" 
	d="
M385.833008,691.139648 
	C385.809357,690.960022 385.785736,690.780457 386.345123,690.343018 
	C394.378601,689.988342 401.830994,689.753235 409.278564,689.858337 
	C412.538086,689.904358 413.723480,688.768799 413.588745,685.546875 
	C413.405151,681.158325 413.542938,676.756409 413.542938,672.463623 
	C422.938324,672.463623 431.510406,672.463623 440.113831,672.902405 
	C440.375336,698.245850 440.645996,723.150330 440.809082,748.055420 
	C440.853577,754.854309 440.574829,761.655273 440.019653,768.395142 
	C430.835297,768.335022 422.075745,768.335022 412.706268,768.335022 
	C412.706268,762.830139 412.770538,758.044495 412.692657,753.261230 
	C412.536713,743.681274 414.097137,744.712769 404.295349,744.730713 
	C399.800751,744.738953 395.284546,744.470703 390.817719,744.825745 
	C386.417664,745.175415 384.560089,743.669006 385.262970,739.238098 
	C385.932037,735.020569 383.915039,733.650269 379.893585,733.774597 
	C373.907104,733.959778 367.906281,733.888428 361.919617,733.687439 
	C360.717346,733.647034 358.536285,732.563904 358.520691,731.920044 
	C358.297241,722.694214 358.368011,713.461304 358.368011,703.877380 
	C363.821503,703.877380 368.466644,703.897095 373.111572,703.873657 
	C385.828033,703.809509 385.828003,703.802307 385.833008,691.139648 
z"/>
<path fill="#3C3836" opacity="1.000000" stroke="none" 
	d="
M436.030243,220.044006 
	C441.279144,219.601517 446.570496,219.411621 451.747559,218.541626 
	C453.067047,218.319885 454.672882,216.086456 455.022583,214.525391 
	C455.964966,210.318802 458.106506,207.826569 462.498840,208.197189 
	C468.105011,208.670227 472.422333,207.871597 474.613647,201.562836 
	C475.314850,199.544006 478.729248,197.573608 481.142151,197.220718 
	C487.008148,196.362823 493.030182,196.118439 498.956177,196.379822 
	C500.919250,196.466415 502.780975,198.851959 504.382690,200.634186 
	C502.053986,200.964600 499.861481,201.313278 498.039246,200.647842 
	C490.833862,198.016556 487.010590,200.362808 487.014923,207.793701 
	C487.018005,213.107697 487.108276,218.421677 487.240784,224.052200 
	C488.120453,226.451736 488.918976,228.534729 489.288300,230.720596 
	C482.656372,232.536789 481.203613,235.320450 482.504425,242.999649 
	C483.279968,247.577927 481.152710,249.679504 476.656952,248.682327 
	C475.200867,248.359344 473.825409,247.537613 472.367126,247.386002 
	C468.533722,246.987427 464.697174,248.166229 464.369141,252.235947 
	C463.680786,260.775879 463.479553,269.417755 463.958344,277.968506 
	C464.316132,284.359283 459.398560,297.024017 454.011017,300.294983 
	C450.778229,302.257751 447.469269,304.095062 443.767303,306.235840 
	C442.009613,304.220764 440.275787,305.275177 438.956421,308.078705 
	C438.178040,304.559357 437.399628,301.039978 436.452728,296.758789 
	C434.580719,297.473328 432.958466,297.942963 431.473816,298.687195 
	C426.986023,300.936798 424.560913,299.607483 424.134583,294.548187 
	C424.092804,294.052368 424.101624,293.550842 424.111572,293.052429 
	C424.170441,290.101959 425.156647,286.653381 423.935608,284.398804 
	C423.264099,283.158875 418.835876,284.173584 416.194672,283.676270 
	C415.075745,283.465576 413.553223,282.125153 413.314941,281.053467 
	C411.992065,275.103424 410.688293,269.113434 410.019714,263.066193 
	C409.574463,259.038727 409.786652,254.816483 410.521362,250.832016 
	C410.890320,248.831177 412.708191,246.249893 414.515869,245.512482 
	C421.376465,242.713928 422.732147,237.473602 422.515167,230.507217 
	C429.222900,229.256485 432.910065,225.023544 436.030243,220.044006 
z"/>
<path fill="#304432" opacity="1.000000" stroke="none" 
	d="
M440.444397,768.455322 
	C440.574829,761.655273 440.853577,754.854309 440.809082,748.055420 
	C440.645996,723.150330 440.375336,698.245850 440.292908,672.498230 
	C440.686859,669.730591 441.260193,667.778198 441.100433,665.887817 
	C440.876617,663.238708 442.637177,659.867737 438.856750,658.229797 
	C442.200897,658.020691 443.235931,656.184326 443.172546,652.946228 
	C443.010834,644.684998 443.022919,636.416626 443.156921,628.154175 
	C443.374451,614.739929 443.744873,601.328125 444.025391,587.011719 
	C444.077911,584.349792 444.155731,582.591309 444.233551,580.832886 
	C447.139740,582.707458 448.083130,587.974915 453.877533,584.767822 
	C453.169800,587.601746 452.796814,589.095215 452.242554,591.314636 
	C460.234467,591.721313 461.765289,597.057190 462.210968,603.607727 
	C462.293243,604.817261 464.954895,606.678467 466.552948,606.821655 
	C475.938995,607.662354 475.959076,607.520691 475.963074,616.980042 
	C475.970184,633.953125 475.865143,650.927307 476.045441,667.898499 
	C476.087158,671.824341 474.887115,673.482849 470.921906,672.994507 
	C469.446777,672.812866 467.913574,673.110352 466.436127,672.938110 
	C463.308105,672.573486 462.389771,674.217102 461.349548,676.951355 
	C455.621826,692.006348 454.505432,707.548767 454.902466,723.488464 
	C455.378815,742.612366 455.019440,761.757141 455.061707,781.341553 
	C450.515167,781.779114 445.928894,781.768066 440.836304,781.169922 
	C440.368134,776.540344 440.406250,772.497803 440.444397,768.455322 
z"/>
<path fill="#C1E6FB" opacity="1.000000" stroke="none" 
	d="
M494.986633,528.975342 
	C495.659180,526.147644 496.911652,523.321350 496.918335,520.492126 
	C497.041595,468.211761 496.949280,415.930939 497.067352,363.650574 
	C497.098114,350.028625 497.686981,336.407959 498.386780,322.201416 
	C501.055573,321.519836 503.357117,321.423523 505.658691,321.327209 
	C507.431793,321.492706 509.204895,321.658173 511.458008,322.387268 
	C511.297363,328.867249 510.163971,334.778625 510.103943,340.700897 
	C509.881104,362.678955 510.004669,384.660583 510.014038,406.640869 
	C510.016846,413.260040 509.314941,419.953827 512.495239,426.209167 
	C513.056396,427.312836 512.990051,428.814941 512.960022,430.127289 
	C512.675232,442.582825 512.008911,455.040924 512.153381,467.490143 
	C512.222656,473.464355 513.795105,479.421082 514.457031,485.691528 
	C514.417236,488.988831 514.607239,491.980316 514.690796,495.430054 
	C514.584290,502.582886 514.584290,509.277496 514.584290,515.947632 
	C517.386353,516.315979 519.811035,516.634644 522.235718,516.953369 
	C522.275085,526.063110 522.314453,535.172791 522.282654,545.190308 
	C522.170776,546.928040 522.113647,547.757629 522.092468,548.588135 
	C521.991211,552.569031 523.409790,557.924072 521.385132,560.149414 
	C519.310242,562.429932 513.868530,561.647339 509.460449,562.085083 
	C504.986725,561.817505 500.953064,561.670166 496.789337,561.164429 
	C496.606567,551.996887 496.635284,543.185913 496.433838,534.380188 
	C496.392395,532.568542 495.491455,530.776428 494.986633,528.975342 
z"/>
<path fill="#E6E16D" opacity="1.000000" stroke="none" 
	d="
M440.019623,768.395142 
	C440.406250,772.497803 440.368134,776.540344 440.356323,781.005249 
	C431.272308,781.427734 422.161957,781.427734 412.361816,781.427734 
	C412.125519,777.438171 411.821777,773.536682 411.679199,769.629333 
	C411.435272,762.944580 409.766937,761.093445 403.005493,760.833801 
	C398.353210,760.655090 393.681122,760.645386 389.031677,760.859741 
	C385.870453,761.005554 385.094910,759.689270 385.061218,756.757263 
	C384.934937,745.772400 384.850616,745.785400 374.051147,745.814209 
	C366.263641,745.835022 358.476105,745.818298 349.974182,745.818298 
	C349.974182,741.738953 350.014069,738.151367 349.966309,734.565002 
	C349.846191,725.543030 351.462067,726.541199 341.653198,726.433289 
	C333.666962,726.345459 325.678894,726.423645 317.691620,726.427856 
	C316.076508,726.428711 314.461426,726.427979 312.562592,726.427979 
	C312.562592,720.896729 312.562592,715.986328 312.562592,710.425842 
	C324.916199,710.425842 337.133545,710.425842 349.793213,710.425842 
	C349.793213,703.859131 349.793213,697.927673 349.793213,691.180542 
	C361.803894,691.180542 373.367889,691.180542 385.382446,691.160095 
	C385.828003,703.802307 385.828033,703.809509 373.111572,703.873657 
	C368.466644,703.897095 363.821503,703.877380 358.368011,703.877380 
	C358.368011,713.461304 358.297241,722.694214 358.520691,731.920044 
	C358.536285,732.563904 360.717346,733.647034 361.919617,733.687439 
	C367.906281,733.888428 373.907104,733.959778 379.893585,733.774597 
	C383.915039,733.650269 385.932037,735.020569 385.262970,739.238098 
	C384.560089,743.669006 386.417664,745.175415 390.817719,744.825745 
	C395.284546,744.470703 399.800751,744.738953 404.295349,744.730713 
	C414.097137,744.712769 412.536713,743.681274 412.692657,753.261230 
	C412.770538,758.044495 412.706268,762.830139 412.706268,768.335022 
	C422.075745,768.335022 430.835297,768.335022 440.019623,768.395142 
M346.411835,723.019531 
	C346.432159,719.964783 347.905914,716.522095 343.108429,713.442444 
	C342.913086,717.156494 342.619202,719.932800 342.777832,722.683044 
	C342.802338,723.107849 344.902893,723.412964 346.411835,723.019531 
z"/>
<path fill="#DEA31A" opacity="1.000000" stroke="none" 
	d="
M505.966888,321.071960 
	C503.357117,321.423523 501.055573,321.519836 498.387848,321.725403 
	C485.739441,321.849274 473.457214,321.863831 460.722290,321.750610 
	C460.269653,321.622803 460.305603,321.253174 460.663849,321.136108 
	C462.922394,320.477020 464.828583,319.954651 466.721985,319.389496 
	C473.802002,317.276184 480.959015,315.234192 480.734863,305.827911 
	C490.151703,304.105011 493.155792,299.438629 490.628723,290.703735 
	C490.434814,290.355927 490.249908,290.334961 489.930847,290.330231 
	C489.817017,290.171143 489.502380,289.938629 489.643768,289.602997 
	C485.629578,284.239929 486.062775,279.254425 491.014191,274.250916 
	C487.317719,273.326813 484.629456,272.654785 481.807068,271.653015 
	C480.263031,268.761871 478.765381,266.243103 477.486603,263.617737 
	C476.979889,262.577362 476.959351,261.300201 476.717438,260.130829 
	C477.888184,260.084595 479.142914,259.747772 480.211090,260.056427 
	C482.077759,260.595825 483.822845,262.145477 485.631409,262.166016 
	C488.768433,262.201630 489.584686,263.869293 489.945251,266.751770 
	C490.191437,269.108124 490.440430,271.080109 490.816925,274.061981 
	C494.924500,270.694977 494.334229,267.928497 492.381165,264.642883 
	C494.187408,262.462341 495.816650,260.072876 498.076477,258.925476 
	C503.878601,255.979523 505.297394,254.105240 503.770264,247.248169 
	C502.868256,243.197968 500.261658,240.295609 494.757080,241.688934 
	C495.247833,236.706146 496.249054,231.644775 489.717529,230.617706 
	C488.918976,228.534729 488.120453,226.451736 487.653412,224.004211 
	C493.602356,221.611298 499.258575,220.477112 505.068909,222.899231 
	C506.087311,223.960327 508.144989,225.263199 507.963104,226.045074 
	C506.169952,233.753448 514.897644,236.363525 515.878052,242.705231 
	C516.005310,243.528076 518.334717,244.763397 519.418640,244.566467 
	C528.211914,242.968903 531.627380,249.134766 535.117310,255.172989 
	C540.700806,252.684769 541.372559,253.153824 541.257935,259.035309 
	C541.154297,264.348541 541.344543,269.671875 541.106812,274.977386 
	C540.307068,292.829163 529.195679,304.055115 515.877258,313.812683 
	C512.681458,316.154053 509.476074,318.482391 505.966888,321.071960 
M507.327606,274.118652 
	C504.838104,274.093170 502.039703,273.335724 499.935730,274.223694 
	C497.179932,275.386749 493.186981,277.583527 492.857178,279.801239 
	C491.783264,287.022919 494.570221,293.286194 500.555237,298.025421 
	C507.889435,303.833008 518.251343,302.945648 524.657104,295.899994 
	C525.468323,295.349731 526.426331,294.933228 527.068359,294.228760 
	C534.746399,285.803711 535.316345,275.601410 533.490723,265.216797 
	C532.215027,257.960236 527.869995,255.349869 520.614136,255.921478 
	C519.294739,256.025421 517.789612,256.372406 516.664429,255.902557 
	C510.982513,253.529999 510.926666,256.727234 510.690674,261.039734 
	C510.448059,265.473358 509.130554,269.848145 507.327606,274.118652 
z"/>
<path fill="#24211F" opacity="1.000000" stroke="none" 
	d="
M490.658051,290.855194 
	C493.155792,299.438629 490.151703,304.105011 480.734863,305.827911 
	C480.959015,315.234192 473.802002,317.276184 466.721985,319.389496 
	C464.828583,319.954651 462.922394,320.477020 460.429993,321.073120 
	C459.249390,321.142548 458.660919,321.157898 458.072418,321.173248 
	C456.637177,321.116302 455.201904,321.059326 452.973816,320.949280 
	C448.619354,320.838257 445.057678,320.780396 441.496033,320.722504 
	C440.700378,316.762360 439.904724,312.802185 439.032745,308.460388 
	C440.275787,305.275177 442.009613,304.220764 443.767303,306.235840 
	C447.469269,304.095062 450.778229,302.257751 454.011017,300.294983 
	C459.398560,297.024017 464.316132,284.359283 463.958344,277.968506 
	C463.479553,269.417755 463.680786,260.775879 464.369141,252.235947 
	C464.697174,248.166229 468.533722,246.987427 472.367126,247.386002 
	C473.825409,247.537613 475.200867,248.359344 476.656952,248.682327 
	C481.152710,249.679504 483.279968,247.577927 482.504425,242.999649 
	C481.203613,235.320450 482.656372,232.536789 489.288300,230.720596 
	C496.249054,231.644775 495.247833,236.706146 494.757080,241.688934 
	C500.261658,240.295609 502.868256,243.197968 503.770264,247.248169 
	C505.297394,254.105240 503.878601,255.979523 498.076477,258.925476 
	C495.816650,260.072876 494.187408,262.462341 492.096191,264.873596 
	C491.263672,265.763214 490.605865,266.065308 489.948029,266.367371 
	C489.584686,263.869293 488.768433,262.201630 485.631409,262.166016 
	C483.822845,262.145477 482.077759,260.595825 480.211090,260.056427 
	C479.142914,259.747772 477.888184,260.084595 476.717438,260.130829 
	C476.959351,261.300201 476.979889,262.577362 477.486603,263.617737 
	C478.765381,266.243103 480.263031,268.761871 481.834351,271.667603 
	C481.995728,272.011902 482.024719,271.956604 481.817352,271.928345 
	C481.367859,272.070831 481.226196,272.302856 481.186676,273.033905 
	C481.000275,280.248810 480.771851,287.045074 489.111359,289.649353 
	C489.257568,289.694977 489.372742,289.839996 489.502380,289.938629 
	C489.502380,289.938629 489.817017,290.171143 489.995789,290.441315 
	C490.307587,290.853638 490.468750,290.901550 490.658051,290.855194 
z"/>
<path fill="#AED7EF" opacity="1.000000" stroke="none" 
	d="
M514.686829,485.385742 
	C513.795105,479.421082 512.222656,473.464355 512.153381,467.490143 
	C512.008911,455.040924 512.675232,442.582825 512.960022,430.127289 
	C512.990051,428.814941 513.056396,427.312836 512.495239,426.209167 
	C509.314941,419.953827 510.016846,413.260040 510.014038,406.640869 
	C510.004669,384.660583 509.881104,362.678955 510.103943,340.700897 
	C510.163971,334.778625 511.297363,328.867249 511.962891,322.559540 
	C520.503113,323.699066 523.595154,327.143921 523.730408,336.581818 
	C523.983337,354.234497 523.928406,371.892059 523.934448,389.547607 
	C523.944519,419.189423 523.937927,448.831421 523.809082,478.472778 
	C523.799500,480.673370 522.753357,482.869415 521.556335,485.247681 
	C520.143982,485.313690 519.364319,485.199615 518.043701,485.086517 
	C517.141907,485.085571 516.781250,485.083679 516.277832,485.293579 
	C515.652344,485.465546 515.169556,485.425629 514.686829,485.385742 
z"/>
<path fill="#E6E16D" opacity="1.000000" stroke="none" 
	d="
M529.494019,673.892700 
	C528.951416,668.905762 528.873291,663.903259 528.790527,658.432678 
	C536.568542,657.752441 544.351013,657.371399 552.134094,657.359192 
	C577.065186,657.320068 601.996460,657.415100 626.927673,657.471008 
	C627.883606,657.473145 628.839294,657.605774 630.345459,657.718933 
	C630.345459,660.409119 630.345459,662.861511 630.369934,666.188171 
	C630.394409,669.435303 630.394409,671.808289 630.394409,674.682617 
	C634.128967,674.495850 637.028564,674.350891 639.928101,674.205872 
	C645.868042,674.205872 651.807983,674.205872 657.886841,674.205872 
	C657.565430,678.127808 657.304321,681.313354 656.917725,685.191650 
	C656.549316,686.525146 656.306580,687.165833 656.063843,687.806519 
	C649.069336,687.827393 642.074280,687.801758 635.080566,687.886230 
	C630.798645,687.937988 628.833130,686.416687 629.034119,681.674805 
	C629.393005,673.206116 629.810303,673.927795 621.289917,673.910400 
	C601.804993,673.870605 582.320007,673.870178 562.835022,673.862671 
	C551.876160,673.858398 540.917358,673.871643 529.494019,673.892700 
z"/>
<path fill="#E6E16D" opacity="1.000000" stroke="none" 
	d="
M520.854004,767.859253 
	C556.778442,767.921570 592.702820,767.983826 629.062622,768.063599 
	C629.593201,770.763367 629.688416,773.445618 629.506165,776.580383 
	C629.344238,777.353577 629.459839,777.674255 629.575378,777.994934 
	C629.646973,778.569458 629.718567,779.144043 629.874634,780.029663 
	C629.959045,780.340759 629.963989,780.273254 629.963989,780.273254 
	C629.318054,780.564880 628.672119,780.856506 627.474121,780.874207 
	C626.779724,780.390991 626.637512,780.181702 626.495239,779.972473 
	C626.345398,780.320312 626.195557,780.668152 626.045715,781.015991 
	C616.988953,781.077454 607.932251,781.138916 598.132202,780.863647 
	C595.274902,780.686218 593.160889,780.845520 591.046875,781.004761 
	C590.855652,781.050903 590.664368,781.097168 590.079102,780.832642 
	C589.157043,780.528809 588.629028,780.535645 588.101074,780.542542 
	C573.368347,780.614075 558.635559,780.685608 543.379578,780.345520 
	C540.673645,774.193970 536.881042,771.560669 530.389465,771.798035 
	C527.173218,771.915588 522.466492,772.840942 520.854004,767.859253 
z"/>
<path fill="#E6E16D" opacity="1.000000" stroke="none" 
	d="
M692.495544,721.985107 
	C683.069092,721.427673 683.069153,721.427673 683.065674,711.931458 
	C683.062378,702.926636 683.062317,702.919800 673.946838,702.889587 
	C669.627441,702.875305 665.300842,703.036621 660.992188,702.821899 
	C659.373535,702.741211 656.593384,702.054260 656.435120,701.238037 
	C656.023193,699.112915 656.720459,696.755371 657.078064,694.506836 
	C657.228210,693.562317 657.637695,692.659058 658.439758,691.373535 
	C670.012207,691.350464 681.074097,691.690857 692.136108,692.031250 
	C692.372742,696.911499 692.609375,701.791687 693.117432,707.268860 
	C693.388733,707.865784 693.779480,707.947266 693.779480,707.947266 
	C693.779480,707.947266 694.175171,707.894226 694.175171,707.894226 
	C701.112122,707.780518 708.049133,707.666809 715.610779,708.003906 
	C716.482727,713.035278 716.729980,717.615845 716.977173,722.196411 
	C712.899414,722.202759 708.821716,722.209106 704.158813,721.877319 
	C702.740662,721.645630 701.907776,721.752197 701.074829,721.858765 
	C698.927917,721.770508 696.781006,721.682312 694.123047,721.352905 
	C693.402954,721.084961 693.240662,721.159180 693.125061,721.334290 
	C693.004272,721.500183 692.883423,721.666077 692.495544,721.985107 
z"/>
<path fill="#E6E16D" opacity="1.000000" stroke="none" 
	d="
M438.396606,658.289185 
	C442.637177,659.867737 440.876617,663.238708 441.100433,665.887817 
	C441.260193,667.778198 440.686859,669.730591 440.261597,672.059448 
	C431.510406,672.463623 422.938324,672.463623 413.542938,672.463623 
	C413.542938,676.756409 413.405151,681.158325 413.588745,685.546875 
	C413.723480,688.768799 412.538086,689.904358 409.278564,689.858337 
	C401.830994,689.753235 394.378601,689.988342 386.459778,690.096741 
	C384.780487,674.887512 384.780396,674.922791 399.541718,674.954895 
	C411.103241,674.980042 409.633057,676.145325 409.719604,664.928711 
	C409.724762,664.263306 409.690033,663.597656 409.696167,662.219788 
	C409.651825,661.328247 409.585175,661.149048 409.518494,660.969910 
	C409.574280,660.465820 409.630035,659.961792 410.094727,659.052002 
	C410.657135,658.532715 410.810699,658.419250 410.964233,658.305786 
	C419.954987,658.320007 428.945740,658.334290 438.396606,658.289185 
z"/>
<path fill="#F7BF22" opacity="1.000000" stroke="none" 
	d="
M509.900482,562.205444 
	C513.868530,561.647339 519.310242,562.429932 521.385132,560.149414 
	C523.409790,557.924072 521.991211,552.569031 522.092468,548.588135 
	C522.113647,547.757629 522.170776,546.928040 522.347778,545.670044 
	C526.287720,545.242065 530.091309,545.242065 534.309875,545.242065 
	C534.309875,550.926819 534.309875,556.301086 534.309875,562.138367 
	C530.946289,562.317688 527.551025,562.498657 524.355469,562.669006 
	C525.202148,572.375061 526.009155,581.626526 526.795471,591.339355 
	C519.048279,591.764832 511.321869,591.728943 503.301941,591.220093 
	C506.755432,581.583252 510.962433,572.530518 509.900482,562.205444 
z"/>
<path fill="#304432" opacity="1.000000" stroke="none" 
	d="
M431.661133,513.159180 
	C432.337952,528.587036 432.580078,544.011780 432.729431,559.921570 
	C421.388794,559.461365 421.219177,559.333435 421.102875,547.832397 
	C421.020569,539.694153 421.096191,531.554199 421.111298,523.415039 
	C421.127258,514.842712 422.735901,513.216614 431.661133,513.159180 
z"/>
<path fill="#E6E16D" opacity="1.000000" stroke="none" 
	d="
M657.949768,734.970154 
	C663.993164,734.683472 670.035156,734.223816 676.080444,734.176147 
	C679.612671,734.148254 682.013550,733.499939 682.978394,729.524719 
	C684.164673,724.637756 688.459534,727.698608 691.713623,726.822205 
	C692.248047,732.613586 692.321533,738.413330 691.852783,744.595703 
	C690.582397,745.156738 689.854187,745.335083 689.126038,745.513367 
	C679.692810,745.592529 670.259644,745.671692 660.171082,745.516785 
	C659.045776,745.193298 658.575806,745.103821 658.105835,745.014343 
	C658.011292,742.342896 657.916748,739.671509 657.869995,736.272217 
	C657.928467,735.352966 657.939087,735.161560 657.949768,734.970154 
z"/>
<path fill="#E6E16D" opacity="1.000000" stroke="none" 
	d="
M630.616943,762.034607 
	C625.706787,758.945435 628.579468,754.236450 628.587646,750.299500 
	C628.589172,749.558777 632.549500,748.340759 634.744507,748.179504 
	C641.833191,747.658875 648.950623,747.528320 656.514160,747.602356 
	C657.211121,748.607178 657.450989,749.257080 657.690796,749.906921 
	C657.732727,750.722839 657.774719,751.538696 657.527344,753.084229 
	C657.174438,756.515259 657.110779,759.216797 657.047180,761.918213 
	C648.709290,762.056763 640.371338,762.195251 631.459229,762.179077 
	C630.885071,762.024292 630.616943,762.034607 630.616943,762.034607 
z"/>
<path fill="#F7BF22" opacity="1.000000" stroke="none" 
	d="
M442.770752,483.537170 
	C449.327026,483.275604 455.715332,483.321075 463.013428,483.359070 
	C467.597717,483.270203 471.272156,483.188812 474.946625,483.107422 
	C475.672852,484.624847 476.770538,486.081329 477.032013,487.675018 
	C477.364075,489.699158 477.017853,491.834564 476.710693,494.420959 
	C476.310486,495.033783 476.163727,495.147675 475.554810,495.227509 
	C471.114563,495.311981 467.136505,495.430511 463.158447,495.549042 
	C458.114807,495.441986 453.054749,495.534332 448.036224,495.121735 
	C446.234619,494.973633 444.533051,493.608490 442.634399,492.403015 
	C442.522919,489.286194 442.562836,486.565216 442.770752,483.537170 
z"/>
<path fill="#24211F" opacity="1.000000" stroke="none" 
	d="
M505.052338,222.437378 
	C499.258575,220.477112 493.602356,221.611298 487.572266,223.687668 
	C487.108276,218.421677 487.018005,213.107697 487.014923,207.793701 
	C487.010590,200.362808 490.833862,198.016556 498.039246,200.647842 
	C499.861481,201.313278 502.053986,200.964600 504.424438,200.978256 
	C504.860291,207.908234 504.948029,214.941879 505.052338,222.437378 
z"/>
<path fill="#AED7EF" opacity="1.000000" stroke="none" 
	d="
M441.368652,321.126831 
	C445.057678,320.780396 448.619354,320.838257 452.547974,321.019501 
	C451.905151,322.812714 450.292267,324.379364 449.985901,326.169617 
	C448.313141,335.944855 447.095245,345.798492 445.384338,355.566223 
	C445.051056,357.469086 443.230316,359.111389 441.773804,360.956116 
	C441.381714,347.869263 441.311493,334.700195 441.368652,321.126831 
z"/>
<path fill="#E8C067" opacity="1.000000" stroke="none" 
	d="
M520.499390,767.797302 
	C522.466492,772.840942 527.173218,771.915588 530.389465,771.798035 
	C536.881042,771.560669 540.673645,774.193970 542.917236,780.257568 
	C533.644226,780.749268 524.310303,780.917297 514.529297,780.960205 
	C514.292358,775.177002 514.502502,769.518921 514.784790,763.521240 
	C513.731812,768.052856 518.037537,766.617676 520.499390,767.797302 
z"/>
<path fill="#505F49" opacity="1.000000" stroke="none" 
	d="
M522.421082,516.597961 
	C519.811035,516.634644 517.386353,516.315979 514.584290,515.947632 
	C514.584290,509.277496 514.584290,502.582886 515.020508,495.326294 
	C517.504822,494.188263 519.552917,493.612183 521.601074,493.036102 
	C521.936218,500.771576 522.271362,508.507080 522.421082,516.597961 
z"/>
<path fill="#E8C067" opacity="1.000000" stroke="none" 
	d="
M717.324646,722.335938 
	C716.729980,717.615845 716.482727,713.035278 716.072021,708.045715 
	C717.348999,707.283508 718.772156,706.747681 720.232910,706.609802 
	C725.644287,706.098877 728.174744,708.054993 728.441040,712.776367 
	C728.802612,719.187195 726.253113,722.394775 720.669373,722.527100 
	C719.671204,722.550781 718.671265,722.494751 717.324646,722.335938 
z"/>
<path fill="#E8C067" opacity="1.000000" stroke="none" 
	d="
M692.289185,691.694763 
	C681.074097,691.690857 670.012207,691.350464 658.483459,691.004028 
	C657.354004,690.178589 656.691406,689.359131 656.046265,688.173096 
	C656.306580,687.165833 656.549316,686.525146 656.849609,685.633057 
	C657.911804,688.323486 659.947754,688.907104 662.958008,688.827209 
	C671.587219,688.598083 680.230408,688.692932 688.860535,688.931274 
	C690.075867,688.964844 691.249390,690.511841 692.289185,691.694763 
z"/>
<path fill="#24211F" opacity="1.000000" stroke="none" 
	d="
M444.189148,580.428345 
	C444.155731,582.591309 444.077911,584.349792 444.001038,586.543640 
	C439.177795,587.800049 436.716370,585.797363 436.163055,580.897339 
	C435.878326,578.376038 434.885315,575.934631 434.302124,573.048767 
	C435.797668,573.100342 437.232544,574.022278 438.603821,573.935852 
	C443.188385,573.646729 444.261383,576.213623 444.189148,580.428345 
z"/>
<path fill="#24211F" opacity="1.000000" stroke="none" 
	d="
M435.562439,220.013855 
	C432.910065,225.023544 429.222900,229.256485 422.536560,230.065765 
	C421.523499,219.950317 421.523499,219.949493 431.650330,219.957153 
	C432.798431,219.958023 433.946564,219.974487 435.562439,220.013855 
z"/>
<path fill="#F7BF22" opacity="1.000000" stroke="none" 
	d="
M521.587646,492.648376 
	C519.552917,493.612183 517.504822,494.188263 515.126953,494.868042 
	C514.607239,491.980316 514.417236,488.988831 514.457031,485.691528 
	C515.169556,485.425629 515.652344,485.465546 516.495056,485.548462 
	C517.431580,485.422852 518.008179,485.254181 518.584717,485.085510 
	C519.364319,485.199615 520.143982,485.313690 521.309814,485.522095 
	C521.655457,487.831146 521.614868,490.045898 521.587646,492.648376 
z"/>
<path fill="#AED7EF" opacity="1.000000" stroke="none" 
	d="
M441.184448,365.480499 
	C441.885254,370.879395 442.399963,376.628479 442.853882,382.843933 
	C442.107574,381.589966 440.930450,379.896393 440.835297,378.144043 
	C440.613159,374.054626 440.911102,369.936951 441.184448,365.480499 
z"/>
<path fill="#24211F" opacity="1.000000" stroke="none" 
	d="
M639.861084,673.856140 
	C637.028564,674.350891 634.128967,674.495850 630.394409,674.682617 
	C630.394409,671.808289 630.394409,669.435303 630.497559,666.613892 
	C633.665161,668.612427 636.729614,671.059387 639.861084,673.856140 
z"/>
<path fill="#AED7EF" opacity="1.000000" stroke="none" 
	d="
M442.897614,418.445068 
	C446.381226,421.712982 445.219971,425.699768 443.380310,429.848145 
	C442.939941,426.290192 442.854584,422.590210 442.897614,418.445068 
z"/>
<path fill="#E8C067" opacity="1.000000" stroke="none" 
	d="
M657.348999,761.754517 
	C657.110779,759.216797 657.174438,756.515259 657.429443,753.482544 
	C657.630798,755.964478 657.640808,758.777649 657.348999,761.754517 
z"/>
<path fill="#E8C067" opacity="1.000000" stroke="none" 
	d="
M591.378174,781.110291 
	C593.160889,780.845520 595.274902,780.686218 597.669434,780.764526 
	C595.869751,781.073364 593.789551,781.144592 591.378174,781.110291 
z"/>
<path fill="#E8C067" opacity="1.000000" stroke="none" 
	d="
M657.824829,749.555908 
	C657.450989,749.257080 657.211121,748.607178 656.970337,747.699829 
	C657.190674,746.795593 657.411987,746.148804 657.869568,745.258179 
	C658.575806,745.103821 659.045776,745.193298 659.701538,745.437622 
	C659.244446,746.796631 658.601685,748.000793 657.824829,749.555908 
z"/>
<path fill="#AED7EF" opacity="1.000000" stroke="none" 
	d="
M442.891205,402.434875 
	C445.586670,403.286438 445.506744,404.903259 443.346252,406.868408 
	C442.937805,405.593536 442.852356,404.213501 442.891205,402.434875 
z"/>
<path fill="#AED7EF" opacity="1.000000" stroke="none" 
	d="
M442.857910,394.427307 
	C443.190399,395.286011 443.399902,396.523590 443.300781,397.856384 
	C442.906403,396.903168 442.820648,395.854675 442.857910,394.427307 
z"/>
<path fill="#E8C067" opacity="1.000000" stroke="none" 
	d="
M701.295532,721.966614 
	C701.907776,721.752197 702.740662,721.645630 703.759033,721.753052 
	C703.135010,722.002869 702.325684,722.038696 701.295532,721.966614 
z"/>
<path fill="#E8C067" opacity="1.000000" stroke="none" 
	d="
M689.418701,745.625610 
	C689.854187,745.335083 690.582397,745.156738 691.598267,745.003174 
	C691.161133,745.264587 690.436279,745.501282 689.418701,745.625610 
z"/>
<path fill="#E8C067" opacity="1.000000" stroke="none" 
	d="
M588.390991,780.677856 
	C588.629028,780.535645 589.157043,780.528809 589.813538,780.703796 
	C589.521667,780.861511 589.101257,780.837341 588.390991,780.677856 
z"/>
<path fill="#E8C067" opacity="1.000000" stroke="none" 
	d="
M626.273560,781.107666 
	C626.195557,780.668152 626.345398,780.320312 626.495239,779.972473 
	C626.637512,780.181702 626.779724,780.390991 626.939453,780.807861 
	C626.956970,781.015503 626.501465,781.199341 626.273560,781.107666 
z"/>
<path fill="#E8C067" opacity="1.000000" stroke="none" 
	d="
M629.674927,777.749146 
	C629.459839,777.674255 629.344238,777.353577 629.410522,777.019043 
	C629.653137,777.171326 629.713867,777.337341 629.674927,777.749146 
z"/>
<path fill="#E8C067" opacity="1.000000" stroke="none" 
	d="
M630.025269,780.557983 
	C629.963989,780.273254 629.959045,780.340759 629.950256,780.311890 
	C629.894653,780.573242 629.847839,780.863403 629.801025,781.153564 
	C629.896179,781.049927 629.991333,780.946289 630.025269,780.557983 
z"/>
<path fill="#E8C067" opacity="1.000000" stroke="none" 
	d="
M630.474243,762.140259 
	C630.616943,762.034607 630.885071,762.024292 631.010559,762.068420 
	C630.938538,762.322754 630.695923,762.417969 630.207275,762.393311 
	C630.006348,762.388367 630.331604,762.245972 630.474243,762.140259 
z"/>
<path fill="#E8C067" opacity="1.000000" stroke="none" 
	d="
M693.305664,721.385864 
	C693.240662,721.159180 693.402954,721.084961 693.695679,721.157104 
	C693.779358,721.202576 693.486206,721.437439 693.305664,721.385864 
z"/>
<path fill="#E8C067" opacity="1.000000" stroke="none" 
	d="
M694.009521,707.777344 
	C694.175171,707.894226 693.779480,707.947266 693.779480,707.947266 
	C693.779480,707.947266 693.388733,707.865784 693.215210,707.769775 
	C693.307800,707.593811 693.575256,707.589417 694.009521,707.777344 
z"/>
<path fill="#304432" opacity="1.000000" stroke="none" 
	d="
M410.812378,658.196533 
	C410.810699,658.419250 410.657135,658.532715 410.221741,658.692993 
	C410.180115,658.522217 410.420319,658.304688 410.812378,658.196533 
z"/>
<path fill="#304432" opacity="1.000000" stroke="none" 
	d="
M409.363098,661.064209 
	C409.585175,661.149048 409.651825,661.328247 409.618652,661.776001 
	C409.415070,661.749207 409.311371,661.453857 409.363098,661.064209 
z"/>
<path fill="#E8C067" opacity="1.000000" stroke="none" 
	d="
M657.812195,735.077576 
	C657.939087,735.161560 657.928467,735.352966 657.871216,735.828491 
	C657.725525,735.908508 657.602417,735.711304 657.539246,735.496521 
	C657.514771,735.413147 657.625488,735.290039 657.812195,735.077576 
z"/>
<path fill="#304432" opacity="1.000000" stroke="none" 
	d="
M494.529236,529.068848 
	C495.491455,530.776428 496.392395,532.568542 496.433838,534.380188 
	C496.635284,543.185913 496.606567,551.996887 496.713867,561.658813 
	C497.297760,571.992371 497.827087,581.473267 498.356415,590.954102 
	C490.100311,592.194702 486.349670,596.093994 486.837982,603.698669 
	C486.957855,605.565430 488.827667,607.319885 489.966125,609.447632 
	C489.377075,609.826111 488.714264,609.939087 488.052856,609.931152 
	C479.584167,609.829346 479.020782,609.277710 479.024811,601.079895 
	C479.036469,577.460571 479.053284,553.841248 479.053894,529.774780 
	C484.050446,529.272461 489.061127,529.217407 494.529236,529.068848 
z"/>
<path fill="#273E2D" opacity="1.000000" stroke="none" 
	d="
M463.138885,495.960449 
	C467.136505,495.430511 471.114563,495.311981 475.737976,495.387695 
	C476.383331,495.581940 476.837708,495.757355 476.837708,495.757355 
	C476.837708,495.757355 477.319702,495.687164 477.319702,495.687164 
	C477.319702,495.687164 477.324707,495.732758 477.255127,495.959656 
	C477.177582,496.521576 477.319305,496.771790 477.610657,496.937256 
	C477.646545,499.647247 477.682465,502.357239 477.618713,505.508179 
	C473.763000,505.609863 469.952148,505.560242 466.263885,504.862671 
	C460.882965,503.845032 463.806610,499.355499 463.138885,495.960449 
z"/>
<path fill="#304432" opacity="1.000000" stroke="none" 
	d="
M501.510406,671.910400 
	C501.945038,673.022827 501.957611,674.153564 501.940308,675.710083 
	C499.369934,675.521973 496.829407,674.908081 494.288879,674.294128 
	C494.393219,673.620056 494.497559,672.945984 494.601898,672.271912 
	C496.764038,672.157471 498.926178,672.043091 501.510406,671.910400 
z"/>
<path fill="#C1E6FB" opacity="1.000000" stroke="none" 
	d="
M474.952698,482.672607 
	C471.272156,483.188812 467.597717,483.270203 463.474030,483.253845 
	C463.012970,446.545135 462.994537,409.934143 462.997009,373.323151 
	C462.997345,368.285583 464.463074,367.220825 470.648132,367.026978 
	C475.312347,366.880859 475.029449,370.002777 474.996552,373.093842 
	C474.667877,404.015564 474.291168,434.937012 474.069580,465.859558 
	C474.030487,471.316559 474.645691,476.778229 474.952698,482.672607 
z"/>
<path fill="#AED7EF" opacity="1.000000" stroke="none" 
	d="
M458.288391,321.387695 
	C458.660919,321.157898 459.249390,321.142548 460.071747,321.190186 
	C460.305603,321.253174 460.269653,321.622803 460.273956,321.809143 
	C459.686981,321.864380 459.095673,321.733307 458.288391,321.387695 
z"/>
<path fill="#505F49" opacity="1.000000" stroke="none" 
	d="
M477.311188,495.411285 
	C477.319702,495.687164 476.837708,495.757355 476.837708,495.757355 
	C476.837708,495.757355 476.383331,495.581940 476.200165,495.421753 
	C476.163727,495.147675 476.310486,495.033783 476.712402,494.808319 
	C477.079285,494.842957 477.190979,494.989197 477.311188,495.411285 
z"/>
<path fill="#505F49" opacity="1.000000" stroke="none" 
	d="
M477.716522,496.726685 
	C477.319305,496.771790 477.177582,496.521576 477.270142,495.976990 
	C477.700317,495.898651 477.856201,496.148193 477.716522,496.726685 
z"/>
<path fill="#DEA31A" opacity="1.000000" stroke="none" 
	d="
M498.579651,591.097534 
	C497.827087,581.473267 497.297760,571.992371 496.843903,562.017212 
	C500.953064,561.670166 504.986725,561.817505 509.460449,562.085083 
	C510.962433,572.530518 506.755432,581.583252 502.887085,591.136475 
	C502.429199,591.523560 502.092621,591.521240 501.449707,591.343994 
	C500.856964,591.261841 500.567200,591.342590 500.274109,591.411194 
	C499.783691,591.354431 499.293304,591.297729 498.579651,591.097534 
z"/>
<path fill="#F7BF22" opacity="1.000000" stroke="none" 
	d="
M500.525940,591.488281 
	C500.567200,591.342590 500.856964,591.261841 501.358093,591.097534 
	C501.307831,591.205811 501.042816,591.385559 500.525940,591.488281 
z"/>
<path fill="#24211F" opacity="1.000000" stroke="none" 
	d="
M346.227600,723.396484 
	C344.902893,723.412964 342.802338,723.107849 342.777832,722.683044 
	C342.619202,719.932800 342.913086,717.156494 343.108429,713.442444 
	C347.905914,716.522095 346.432159,719.964783 346.227600,723.396484 
z"/>
<path fill="#E8C067" opacity="1.000000" stroke="none" 
	d="
M508.283447,274.248718 
	C509.130554,269.848145 510.448059,265.473358 510.690674,261.039734 
	C510.926666,256.727234 510.982513,253.529999 516.664429,255.902557 
	C517.789612,256.372406 519.294739,256.025421 520.614136,255.921478 
	C527.869995,255.349869 532.215027,257.960236 533.490723,265.216797 
	C535.316345,275.601410 534.746399,285.803711 527.068359,294.228760 
	C526.426331,294.933228 525.468323,295.349731 524.024780,295.889832 
	C522.810730,294.379761 522.228882,292.879883 521.590454,291.233887 
	C517.250854,295.208282 516.315979,295.010071 512.545349,290.717407 
	C511.578613,289.616821 509.770050,288.999817 508.241516,288.693878 
	C502.317719,287.508392 500.956573,286.044952 500.592712,280.768585 
	C503.469391,278.329834 505.876404,276.289276 508.283447,274.248718 
z"/>
<path fill="#D0973F" opacity="1.000000" stroke="none" 
	d="
M507.805542,274.183685 
	C505.876404,276.289276 503.469391,278.329834 500.592712,280.768585 
	C500.956573,286.044952 502.317719,287.508392 508.241516,288.693878 
	C509.770050,288.999817 511.578613,289.616821 512.545349,290.717407 
	C516.315979,295.010071 517.250854,295.208282 521.590454,291.233887 
	C522.228882,292.879883 522.810730,294.379761 523.686157,295.971771 
	C518.251343,302.945648 507.889435,303.833008 500.555237,298.025421 
	C494.570221,293.286194 491.783264,287.022919 492.857178,279.801239 
	C493.186981,277.583527 497.179932,275.386749 499.935730,274.223694 
	C502.039703,273.335724 504.838104,274.093170 507.805542,274.183685 
z"/>
<path fill="#505F49" opacity="1.000000" stroke="none" 
	d="
M489.643768,289.602997 
	C489.372742,289.839996 489.257568,289.694977 489.111359,289.649353 
	C480.771851,287.045074 481.000275,280.248810 481.312134,272.909332 
	C481.611481,272.185699 481.807739,272.055542 482.024719,271.956604 
	C482.024719,271.956604 481.995728,272.011902 481.968445,271.997314 
	C484.629456,272.654785 487.317719,273.326813 491.014191,274.250916 
	C486.062775,279.254425 485.629578,284.239929 489.643768,289.602997 
z"/>
<path fill="#505F49" opacity="1.000000" stroke="none" 
	d="
M489.945251,266.751770 
	C490.605865,266.065308 491.263672,265.763214 492.206421,265.230408 
	C494.334229,267.928497 494.924500,270.694977 490.816925,274.061981 
	C490.440430,271.080109 490.191437,269.108124 489.945251,266.751770 
z"/>
<path fill="#505F49" opacity="1.000000" stroke="none" 
	d="
M490.628723,290.703735 
	C490.468750,290.901550 490.307587,290.853638 490.109589,290.600403 
	C490.249908,290.334961 490.434814,290.355927 490.628723,290.703735 
z"/>
<path fill="#DEA31A" opacity="1.000000" stroke="none" 
	d="
M481.817352,271.928345 
	C481.807739,272.055542 481.611481,272.185699 481.310425,272.471619 
	C481.226196,272.302856 481.367859,272.070831 481.817352,271.928345 
z"/>
<path fill="#C1E6FB" opacity="1.000000" stroke="none" 
	d="
M518.043701,485.086487 
	C518.008179,485.254181 517.431580,485.422852 516.637817,485.336639 
	C516.781250,485.083679 517.141907,485.085571 518.043701,485.086487 
z"/>
</svg>